<?xml version="1.0" encoding="utf-8"?>
<!-- Generator: Adobe Illustrator 27.9.0, SVG Export Plug-In . SVG Version: 6.00 Build 0)  -->
<svg version="1.1" id="Layer_1" xmlns="http://www.w3.org/2000/svg" xmlns:xlink="http://www.w3.org/1999/xlink" x="0px" y="0px"
	 viewBox="0 0 80 100" style="enable-background:new 0 0 80 100;" xml:space="preserve">
<style type="text/css">
	.st0{fill:#FFFFFF;stroke:#000000;stroke-width:3;stroke-miterlimit:10;}
	.st1{fill:#F6E73C;stroke:#231F20;stroke-miterlimit:10;}
	.st2{fill:#EC60A2;stroke:#231F20;stroke-miterlimit:10;}
	.st3{fill:#6B60A9;stroke:#231F20;stroke-miterlimit:10;}
	.st4{fill:#74BF45;stroke:#231F20;stroke-miterlimit:10;}
</style>
<polygon class="st0" points="77,71.4 77,28.6 40,7.3 3,28.6 3,71.4 40,92.7 "/>
<path class="st1" d="M59,72.5c0,2.6-1.7,4.7-3.7,4.7c-2.1,0-3.7-2.1-3.7-4.7c0-2.6,1.7-4.7,3.7-4.7C57.4,67.8,59,69.9,59,72.5z"/>
<path class="st1" d="M54,72.5c0,5.2-5.6,9.4-12.6,9.4c-7,0-12.6-4.2-12.6-9.4c0-5.2,5.6-9.4,12.6-9.4C48.3,63.1,54,67.3,54,72.5z"/>
<path class="st2" d="M40.2,20.5c1.6,1.6,1.6,4.2,0,5.8L16.1,50.7c-1.6,1.6-4.2,1.6-5.8,0l-2-2c-1.6-1.6-1.6-4.2,0-5.8l24.1-24.5
	c1.6-1.6,4.2-1.6,5.8,0L40.2,20.5z"/>
<path class="st3" d="M28.4,40.6c1.9,2.8,1.1,6.6-1.7,8.5c-2.8,1.9-6.6,1.1-8.5-1.7c-1.9-2.8-1.1-6.6,1.7-8.5
	C22.7,37.1,26.5,37.8,28.4,40.6z"/>
<path class="st3" d="M32.1,34.1c1.9,2.8,1.1,6.6-1.7,8.5c-2.8,1.9-6.6,1.1-8.5-1.7c-1.9-2.8-1.1-6.6,1.7-8.5
	C26.4,30.6,30.2,31.3,32.1,34.1z"/>
<path class="st3" d="M34.5,40.6c1.9,2.8,1.1,6.6-1.7,8.5c-2.8,1.9-6.6,1.1-8.5-1.7c-1.9-2.8-1.1-6.6,1.7-8.5
	C28.8,37.1,32.6,37.8,34.5,40.6z"/>
<g>
	<rect x="47.9" y="42.3" transform="matrix(0.4227 -0.9063 0.9063 0.4227 -7.4221 76.5964)" class="st4" width="17" height="3.6"/>
	<polygon class="st4" points="58.7,26.1 65.2,25.6 68.9,30.9 66.1,36.8 59.7,37.4 55.9,32.1 	"/>
	<polygon class="st4" points="50,57.8 50,53.7 46.1,51.8 43.2,52.9 45.9,50.4 50.6,52.3 47.2,46.4 40,47.7 48.3,44.1 51.2,51 
		54.5,52.5 61.6,50.4 64.3,59 60.6,52.6 53.9,53.8 58.4,56.2 58.1,59.9 57.1,57 53.2,55.2 	"/>
</g>
</svg>
